<svg width="26" height="26" viewBox="0 0 26 26" fill="none" xmlns="http://www.w3.org/2000/svg">
<path d="M6.99927 16.2403C7.54492 15.2582 8.34328 14.4399 9.31161 13.8701C10.2799 13.3004 11.383 13 12.5065 13H13.4935C14.617 13 15.7201 13.3004 16.6884 13.8701C17.6568 14.4399 18.4551 15.2582 19.0008 16.2403L20.7165 19.3304C21.4935 20.7301 20.4823 22.45 18.8811 22.45H7.11897C5.51772 22.45 4.50552 20.7301 5.28357 19.3304L6.99927 16.2403Z" fill="#7D879F"/>
<path opacity="0.3" d="M17.2 7.75005C17.2 5.43045 15.3196 3.55005 13 3.55005C10.6805 3.55005 8.80005 5.43045 8.80005 7.75005C8.80005 10.0696 10.6805 11.95 13 11.95C15.3196 11.95 17.2 10.0696 17.2 7.75005Z" fill="#7D879F"/>
</svg>
