<svg width="55" height="52" viewBox="0 0 55 52" fill="none" xmlns="http://www.w3.org/2000/svg">
<path opacity="0.3" d="M21 41.5C22.7397 41.5 24.15 40.0897 24.15 38.35C24.15 36.6103 22.7397 35.2 21 35.2C19.2603 35.2 17.85 36.6103 17.85 38.35C17.85 40.0897 19.2603 41.5 21 41.5Z" fill="#7D879F"/>
<path d="M28.35 34.15V37.3C28.35 37.93 27.93 38.35 27.3 38.35H14.7C14.07 38.35 13.65 37.93 13.65 37.3V34.15C14.805 34.15 15.75 33.205 15.75 32.05V28.9C15.75 26.38 17.535 24.28 19.95 23.755V21.55C19.95 20.92 20.37 20.5 21 20.5C21.63 20.5 22.05 20.92 22.05 21.55V23.755C24.465 24.28 26.25 26.38 26.25 28.9V32.05C26.25 33.205 27.195 34.15 28.35 34.15ZM19.95 28.9C19.95 28.27 20.37 27.85 21 27.85C21.63 27.85 22.05 27.43 22.05 26.8C22.05 26.17 21.63 25.75 21 25.75C19.215 25.75 17.85 27.115 17.85 28.9C17.85 29.53 18.27 29.95 18.9 29.95C19.53 29.95 19.95 29.53 19.95 28.9Z" fill="#7D879F"/>
<g filter="url(#filter0_d_38_4328)">
<rect x="34.65" y="3.70001" width="14.7" height="14.7" rx="7.35" fill="#F72356" shape-rendering="crispEdges"/>
<path d="M44.0732 12.1262C44.0732 12.5591 43.9723 12.9269 43.7705 13.2297C43.5719 13.5292 43.3018 13.757 42.96 13.9133C42.6214 14.0695 42.2389 14.1476 41.8125 14.1476C41.3861 14.1476 41.002 14.0695 40.6602 13.9133C40.3184 13.757 40.0482 13.5292 39.8496 13.2297C39.651 12.9269 39.5518 12.5591 39.5518 12.1262C39.5518 11.843 39.6055 11.5842 39.7129 11.3498C39.8236 11.1122 39.9782 10.9055 40.1768 10.7297C40.3786 10.5539 40.6162 10.4188 40.8896 10.3244C41.1663 10.2267 41.4707 10.1779 41.8027 10.1779C42.2389 10.1779 42.6279 10.2626 42.9697 10.4318C43.3115 10.5978 43.5801 10.8273 43.7754 11.1203C43.974 11.4133 44.0732 11.7486 44.0732 12.1262ZM43.165 12.1066C43.165 11.843 43.1081 11.6102 42.9941 11.4084C42.8802 11.2033 42.7207 11.0438 42.5156 10.9299C42.3105 10.8159 42.0729 10.759 41.8027 10.759C41.526 10.759 41.2868 10.8159 41.085 10.9299C40.8864 11.0438 40.7318 11.2033 40.6211 11.4084C40.5104 11.6102 40.4551 11.843 40.4551 12.1066C40.4551 12.3801 40.5088 12.6144 40.6162 12.8098C40.7269 13.0018 40.8831 13.1499 41.085 13.2541C41.29 13.355 41.5326 13.4055 41.8125 13.4055C42.0924 13.4055 42.3333 13.355 42.5352 13.2541C42.737 13.1499 42.8916 13.0018 42.999 12.8098C43.1097 12.6144 43.165 12.3801 43.165 12.1066ZM43.9072 8.7912C43.9072 9.13625 43.8161 9.44712 43.6338 9.72382C43.4515 10.0005 43.2025 10.2186 42.8867 10.3781C42.571 10.5376 42.2129 10.6174 41.8125 10.6174C41.4056 10.6174 41.0426 10.5376 40.7236 10.3781C40.4079 10.2186 40.1605 10.0005 39.9814 9.72382C39.8024 9.44712 39.7129 9.13625 39.7129 8.7912C39.7129 8.37779 39.8024 8.02622 39.9814 7.73651C40.1637 7.4468 40.4128 7.22544 40.7285 7.07245C41.0443 6.91945 41.404 6.84296 41.8076 6.84296C42.2145 6.84296 42.5758 6.91945 42.8916 7.07245C43.2074 7.22544 43.4548 7.4468 43.6338 7.73651C43.8161 8.02622 43.9072 8.37779 43.9072 8.7912ZM43.0039 8.80585C43.0039 8.56822 42.9535 8.35826 42.8525 8.17596C42.7516 7.99367 42.6117 7.85044 42.4326 7.74628C42.2536 7.63885 42.0452 7.58514 41.8076 7.58514C41.57 7.58514 41.3617 7.6356 41.1826 7.73651C41.0068 7.83417 40.8685 7.97414 40.7676 8.15643C40.6699 8.33872 40.6211 8.5552 40.6211 8.80585C40.6211 9.04999 40.6699 9.2632 40.7676 9.4455C40.8685 9.62779 41.0085 9.76939 41.1875 9.8703C41.3665 9.97121 41.5749 10.0217 41.8125 10.0217C42.0501 10.0217 42.2568 9.97121 42.4326 9.8703C42.6117 9.76939 42.7516 9.62779 42.8525 9.4455C42.9535 9.2632 43.0039 9.04999 43.0039 8.80585Z" fill="white"/>
<rect x="34.15" y="3.20001" width="15.7" height="15.7" rx="7.85" stroke="white" shape-rendering="crispEdges"/>
</g>
<defs>
<filter id="filter0_d_38_4328" x="29.65" y="0.700012" width="24.7" height="24.7" filterUnits="userSpaceOnUse" color-interpolation-filters="sRGB">
<feFlood flood-opacity="0" result="BackgroundImageFix"/>
<feColorMatrix in="SourceAlpha" type="matrix" values="0 0 0 0 0 0 0 0 0 0 0 0 0 0 0 0 0 0 127 0" result="hardAlpha"/>
<feOffset dy="2"/>
<feGaussianBlur stdDeviation="2"/>
<feComposite in2="hardAlpha" operator="out"/>
<feColorMatrix type="matrix" values="0 0 0 0 0 0 0 0 0 0 0 0 0 0 0 0 0 0 0.1 0"/>
<feBlend mode="normal" in2="BackgroundImageFix" result="effect1_dropShadow_38_4328"/>
<feBlend mode="normal" in="SourceGraphic" in2="effect1_dropShadow_38_4328" result="shape"/>
</filter>
</defs>
</svg>
