<svg width="42" height="42" viewBox="0 0 42 42" fill="none" xmlns="http://www.w3.org/2000/svg">
<path d="M21 24.15C19.2603 24.15 17.85 22.7397 17.85 21C17.85 19.2603 19.2603 17.85 21 17.85C22.7397 17.85 24.15 19.2603 24.15 21C24.15 22.7397 22.7397 24.15 21 24.15Z" fill="#8A91A1"/>
<path opacity="0.3" d="M28.875 19.425H30.45C31.3199 19.425 32.025 20.1302 32.025 21C32.025 21.8699 31.3199 22.575 30.45 22.575H28.875C28.0052 22.575 27.3 21.8699 27.3 21C27.3 20.1302 28.0052 19.425 28.875 19.425ZM25.2637 14.5649L26.3774 13.4512C26.9925 12.8362 27.9897 12.8362 28.6048 13.4512C29.2199 14.0663 29.2199 15.0635 28.6048 15.6786L27.4911 16.7923C26.876 17.4074 25.8788 17.4074 25.2637 16.7923C24.6487 16.1772 24.6487 15.18 25.2637 14.5649ZM25.2637 27.4911C24.6487 26.876 24.6487 25.8788 25.2637 25.2637C25.8788 24.6487 26.876 24.6487 27.4911 25.2637L28.6048 26.3774C29.2199 26.9925 29.2199 27.9897 28.6048 28.6048C27.9897 29.2199 26.9925 29.2199 26.3774 28.6048L25.2637 27.4911ZM11.55 19.425H13.125C13.9949 19.425 14.7 20.1302 14.7 21C14.7 21.8699 13.9949 22.575 13.125 22.575H11.55C10.6802 22.575 9.97504 21.8699 9.97504 21C9.97504 20.1302 10.6802 19.425 11.55 19.425ZM21 9.97504C21.8699 9.97504 22.575 10.6802 22.575 11.55V13.125C22.575 13.9949 21.8699 14.7 21 14.7C20.1302 14.7 19.425 13.9949 19.425 13.125V11.55C19.425 10.6802 20.1302 9.97504 21 9.97504ZM21 27.3C21.8699 27.3 22.575 28.0052 22.575 28.875V30.45C22.575 31.3199 21.8699 32.025 21 32.025C20.1302 32.025 19.425 31.3199 19.425 30.45V28.875C19.425 28.0052 20.1302 27.3 21 27.3ZM13.4512 13.4512C14.0663 12.8362 15.0635 12.8362 15.6786 13.4512L16.7923 14.5649C17.4074 15.18 17.4074 16.1772 16.7923 16.7923C16.1772 17.4074 15.18 17.4074 14.5649 16.7923L13.4512 15.6786C12.8362 15.0635 12.8362 14.0663 13.4512 13.4512ZM13.4512 28.6048C12.8362 27.9897 12.8362 26.9925 13.4512 26.3774L14.5649 25.2637C15.18 24.6487 16.1772 24.6487 16.7923 25.2637C17.4074 25.8788 17.4074 26.876 16.7923 27.4911L15.6786 28.6048C15.0635 29.2199 14.0663 29.2199 13.4512 28.6048Z" fill="#8A91A1"/>
</svg>
